<?xml version="1.0" encoding="UTF-8"?>
<svg id="Layer_2" data-name="Layer 2" xmlns="http://www.w3.org/2000/svg" viewBox="0 0 56.36 56.36">
  <defs>
    <style>
      .cls-1 {
        stroke-width: 0px;
      }
    </style>
  </defs>
  <g id="_ÎÓÈ_1" data-name="—ÎÓÈ_1">
    <g>
      <path class="cls-1" d="m52.18,56.36c-1.07,0-2.14-.41-2.96-1.22L1.22,7.14C-.41,5.5-.41,2.86,1.22,1.22S5.5-.41,7.14,1.22l48,48c1.63,1.63,1.63,4.28,0,5.91-.82.82-1.89,1.22-2.96,1.22Z"/>
      <path class="cls-1" d="m4.18,56.36c-1.07,0-2.14-.41-2.96-1.22-1.63-1.63-1.63-4.28,0-5.91L49.22,1.22c1.63-1.63,4.28-1.63,5.91,0s1.63,4.28,0,5.91L7.14,55.14c-.82.82-1.89,1.22-2.96,1.22Z"/>
    </g>
  </g>
</svg>