<?xml version="1.0" encoding="utf-8"?>
<!-- Generator: Adobe Illustrator 27.2.0, SVG Export Plug-In . SVG Version: 6.00 Build 0)  -->
<svg version="1.1" xmlns="http://www.w3.org/2000/svg" xmlns:xlink="http://www.w3.org/1999/xlink" x="0px" y="0px"
	 viewBox="0 0 394.4 394.4" style="enable-background:new 0 0 394.4 394.4;" xml:space="preserve">
<g id="Layer_3">
</g>
<g id="Layer_2_00000044139343023741862880000016986749708885922186_">
	<g>
		<polygon points="296.5,193.9 291.2,186.4 256.8,138.3 238.5,138.3 281.1,197.9 286.4,205.4 286.4,205.4 322.8,256.5 341.2,256.5 
					"/>
		<path d="M197.2,0C88.3,0,0,88.3,0,197.2s88.3,197.2,197.2,197.2s197.2-88.3,197.2-197.2S306.1,0,197.2,0z M183.6,163.4
			L183.6,163.4c0.1,1.5,0.1,2.9,0.1,4.3c0,44.3-33.7,95.4-95.4,95.4v0c-18.2,0-36.1-5.2-51.4-15c2.7,0.3,5.3,0.5,8,0.5
			c15.1,0,29.8-5.1,41.6-14.4c-14.3-0.3-26.9-9.6-31.3-23.3c5,1,10.2,0.8,15.1-0.6c-15.6-3.2-26.9-16.9-26.9-32.9V177
			c4.7,2.6,9.9,4,15.2,4.2c-14.7-9.9-19.3-29.5-10.4-44.8c17,21,42.2,33.7,69.1,35c-2.7-11.7,1-23.9,9.7-32
			c13.5-12.7,34.8-12,47.5,1.5c7.5-1.5,14.7-4.2,21.3-8.1c-2.5,7.8-7.7,14.4-14.7,18.5c6.6-0.8,13.1-2.6,19.3-5.3
			C195.8,152.8,190.2,158.7,183.6,163.4z M317.2,264.9l-36.9-52.6l-46.2,52.6h-11.9l52.8-60.1l-52.8-75.2h40.3l34.9,49.8l43.7-49.8
			h11.9l-50.3,57.3h0l54.7,78H317.2z"/>
	</g>
</g>
</svg>
